<svg width="525" height="644" viewBox="0 0 525 644" fill="none" xmlns="http://www.w3.org/2000/svg">
<path 
  fill-rule="evenodd" 
  clip-rule="evenodd" 
  d="M0 322V644H262.5H525V322V0H262.5H0V322ZM511 322V630H262H13V322V14H262H511V322ZM48 324.5V599H263.5H479V324.5V50H263.5H48V324.5ZM389.25 119.504L400 121.251V136.633V152.015L394.25 148.126C379.571 138.195 364.449 134.203 348.725 136.108C332.785 138.039 323.673 146.003 323.68 158C323.687 170.809 329.485 176.064 361.036 191.855C394.717 208.712 402.795 214.745 409.25 227.857C411.864 233.166 412.466 235.722 412.813 242.971C413.482 256.954 409.888 266.491 399.784 277.545C386.344 292.251 359.503 301.408 335.5 299.476C320.516 298.27 297.502 292.693 295.99 289.901C294.805 287.714 287.819 259.848 288.328 259.339C288.577 259.089 291.193 260.424 294.141 262.306C313.231 274.491 334.735 280.208 352.961 277.943C371.942 275.584 382.629 266.816 383.715 252.71C384.134 247.266 383.836 245.822 381.296 241.004C377.314 233.448 372.263 229.916 347.5 217.373C314.582 200.699 303.207 192.079 297.196 179.253C294.804 174.15 294.5 172.314 294.5 163C294.5 153.279 294.736 152.003 297.674 145.799C304.313 131.785 316.535 123.425 337 118.897C347.607 116.551 372.882 116.844 389.25 119.504ZM193.284 120.02C215.864 123.286 231.452 134.988 236.542 152.497C238.912 160.65 238.192 171.738 234.819 179.02C230.14 189.119 221.006 197.539 207.227 204.454C200.702 207.729 200.088 208.283 201.229 209.867C224.294 241.891 249.287 274.328 257 282.25L266.5 292.006L263.215 292.621C261.409 292.959 255.723 293.052 250.58 292.827C242.261 292.463 240.407 292.011 233.774 288.733C229.091 286.418 224.669 283.273 221.881 280.274C217.715 275.793 167.452 206.369 166.456 203.722C166.155 202.919 168.828 201.716 174.248 200.215C198.03 193.628 209.176 182.675 209.176 165.892C209.176 154.237 203.958 145.662 193.508 140.144C188.833 137.676 187.636 137.501 175.5 137.51C168.35 137.515 161.698 137.844 160.718 138.241C159.028 138.925 158.95 142.588 159.218 208.731C159.53 285.901 159.146 281.347 166.07 290.088L169.168 294H145.025C125.98 294 121.039 293.736 121.627 292.75C122.037 292.063 123.621 289.925 125.147 288C130.997 280.619 131.107 278.971 130.789 203.323C130.469 127.154 130.832 131.399 123.908 122.75L120.906 119L153.703 119.02C171.741 119.031 189.553 119.481 193.284 120.02ZM218.5 349.479C234.84 351.913 233 349.687 233 367.019C233 375.259 232.82 382 232.6 382C232.381 382 229.793 380.361 226.85 378.358C214.976 370.276 201.832 366.05 188.46 366.017C167.863 365.967 154.407 376.361 156.385 390.794C157.978 402.412 164.67 407.945 195.667 423.271C227.853 439.184 235.889 445.326 242.315 458.923C248.219 471.415 246.923 487.64 239.053 499.779C230.931 512.305 214.766 523.207 198 527.466C182.146 531.492 159.407 530.305 138.286 524.347C129.736 521.935 129 521.522 128.078 518.624C126.668 514.192 121 491.326 121 490.071C121 489.496 123.565 490.666 126.7 492.671C153.116 509.569 185.61 513.787 204.065 502.714C216.571 495.211 220.394 480.3 212.729 468.925C208.992 463.381 201.648 458.614 179.001 447.033C167.176 440.986 154.586 434.128 151.024 431.794C142.045 425.907 133.824 417.38 130.394 410.394C127.735 404.978 127.5 403.608 127.5 393.5C127.5 383.503 127.761 381.935 130.365 376.298C134.071 368.275 143.533 359.045 152.188 355.01C168.704 347.31 191.289 345.426 218.5 349.479ZM348.519 351.053C369.115 353.349 383.597 361.542 390.042 374.542C392.136 378.766 392.498 380.906 392.487 389C392.477 396.952 392.103 399.2 390.194 402.795C386.942 408.92 381.708 414.38 374.706 418.956C369.618 422.281 368.948 423.034 370.567 423.61C391.68 431.116 402.525 441.383 407.035 458.131C408.512 463.615 408.465 476.225 406.945 482.5C401.489 505.022 379.759 520.44 348.5 523.968C337.75 525.181 278 525.356 278 524.174C278 523.72 279.12 522.296 280.49 521.01C281.859 519.723 283.99 516.157 285.226 513.085C287.46 507.529 287.474 507.161 287.799 443C288.006 402.042 287.745 375.672 287.084 370.753C285.989 362.6 283.619 356.772 280.106 353.595C278.948 352.547 278 351.31 278 350.845C278 349.628 337.306 349.802 348.519 351.053ZM328.5 367.502C327.95 367.692 324.913 368.139 321.75 368.495L316 369.144V393.955V418.767L318.25 419.37C322.556 420.524 336.618 419.99 342.54 418.448C354.782 415.26 361.005 409.246 363.279 398.405C365.559 387.534 360.903 376.498 351.97 371.599C346.277 368.477 332.6 366.09 328.5 367.502ZM325 437.549C324.175 437.724 321.813 438.142 319.75 438.479L316 439.091V471.077C316 500.332 316.146 503.119 317.71 503.719C318.65 504.08 326.413 504.403 334.96 504.438C347.561 504.488 351.577 504.147 356.193 502.631C371.734 497.529 379.306 487.455 379.216 472C379.119 455.373 368.826 443.233 350.744 438.42C346.166 437.201 329.335 436.632 325 437.549Z" 
  fill="#ffffff"/>
</svg>